<svg xmlns="http://www.w3.org/2000/svg">
	<symbol id="bolt" viewBox="0 -960 960 960">
		<path d="m280-80 160-300-320-40 480-460h80L520-580l320 40L360-80h-80Z"/>
	</symbol>
	<symbol id="menu" viewBox="0 0 32 32">
		<path d="M16,2C8.3,2,2,8.3,2,16s6.3,14,14,14s14-6.3,14-14S23.7,2,16,2z M22,21H10c-0.6,0-1-0.4-1-1s0.4-1,1-1h12c0.6,0,1,0.4,1,1 S22.6,21,22,21z M22,17H10c-0.6,0-1-0.4-1-1s0.4-1,1-1h12c0.6,0,1,0.4,1,1S22.6,17,22,17z M22,13H10c-0.6,0-1-0.4-1-1s0.4-1,1-1h12 c0.6,0,1,0.4,1,1S22.6,13,22,13z"/>
	</symbol>
	<symbol id="palette" viewBox="0 -960 960 960">
		<path d="M480-80q-82 0-155-31.5t-127.5-86Q143-252 111.5-325T80-480q0-83 32.5-156t88-127Q256-817 330-848.5T488-880q80 0 151 27.5t124.5 76q53.5 48.5 85 115T880-518q0 115-70 176.5T640-280h-74q-9 0-12.5 5t-3.5 11q0 12 15 34.5t15 51.5q0 50-27.5 74T480-80ZM260-440q26 0 43-17t17-43q0-26-17-43t-43-17q-26 0-43 17t-17 43q0 26 17 43t43 17Zm120-160q26 0 43-17t17-43q0-26-17-43t-43-17q-26 0-43 17t-17 43q0 26 17 43t43 17Zm200 0q26 0 43-17t17-43q0-26-17-43t-43-17q-26 0-43 17t-17 43q0 26 17 43t43 17Zm120 160q26 0 43-17t17-43q0-26-17-43t-43-17q-26 0-43 17t-17 43q0 26 17 43t43 17Z"/>
	</symbol>
</svg>
